<?xml version="1.0" encoding="utf-8"?>
<!-- Generator: Adobe Illustrator 22.1.0, SVG Export Plug-In . SVG Version: 6.00 Build 0)  -->
<svg version="1.1" id="Layer_1" xmlns="http://www.w3.org/2000/svg" xmlns:xlink="http://www.w3.org/1999/xlink" x="0px" y="0px"
	 viewBox="0 0 1366 1000" style="enable-background:new 0 0 1366 1000;" xml:space="preserve">
<style type="text/css">
	.st0{fill:url(#Space_1_);}
	.st1{fill:url(#Planet_1_);}
	.st2{fill:#0A0A0A;enable-background:new    ;}
	.st3{fill:#D1D3D4;}
	.st4{fill:#282828;}
	.st5{fill:#333132;}
	.st6{opacity:0.4;}
	.st7{fill:#636466;}
</style>
<linearGradient id="Space_1_" gradientUnits="userSpaceOnUse" x1="683.0499" y1="768" x2="683.0499" y2="-232" gradientTransform="matrix(1 0 0 1 0 232)">
	<stop  offset="0" style="stop-color:#404040"/>
	<stop  offset="0.2677" style="stop-color:#3C3C3C"/>
	<stop  offset="0.5449" style="stop-color:#2F2F2F"/>
	<stop  offset="0.8257" style="stop-color:#1B1B1B"/>
	<stop  offset="1" style="stop-color:#0A0A0A"/>
</linearGradient>
<rect id="Space" x="-97.8" class="st0" width="1561.7" height="1000"/>
<title>Artboard 1</title>
<linearGradient id="Planet_1_" gradientUnits="userSpaceOnUse" x1="683" y1="1410.771" x2="683" y2="867">
	<stop  offset="0" style="stop-color:#404040"/>
	<stop  offset="0.2677" style="stop-color:#3C3C3C"/>
	<stop  offset="0.5449" style="stop-color:#2F2F2F"/>
	<stop  offset="0.8257" style="stop-color:#1B1B1B"/>
	<stop  offset="1" style="stop-color:#0A0A0A"/>
</linearGradient>
<path id="Planet" class="st1" d="M2944.9,1410.8C2266.5,1063.1,1497.7,867,683,867s-1583.5,196.1-2261.9,543.8H2944.9z"/>
<polygon id="Shadow" class="st2" points="-204,1062 88.5,940.9 134.3,944.4 -15.7,1062 21.1,1060.3 154.5,944.7 178.7,943.4 
	102.2,1060.3 "/>
<g id="Astronaut">
	<path class="st3" d="M200.5,756.3c0.7,0.9,0.9,2.1,0.5,3.1c-0.2,0.6-0.8,0.4-0.7,0.8c-1,0.3-1.3,0-2.5,0.3s-1.5,0.3-1.1-0.6
		c0.4-0.9,0.8-2.3-1.2-1.8c-2,0.6-1.8-1.5-1.8-3.2c0.1-1.7,3.9,0.8,3.4-1.3s-1.8-0.3-2.6-1.7s-2.5-0.7-2.5-1.8
		c0-1.2,1.3-0.8,2.3-1.8c0.8-0.7,1.1-1.7,0.8-2.7c-0.2-1.2-0.2-2.4,0.1-3.6c0.3-0.8-0.2-1.3-0.3-2.2c-0.1-0.9-2.2-0.6-1-2.5
		s-0.3-1-0.6-1.8c-0.3-0.8,0.6-1.4,0.9-2.7c0-0.1,0.1-0.2,0.1-0.3l1.6-0.1c0,0.2,0.1,0.4,0.3,0.6c0.4,0.5,0.4,1.3-0.2,1.8
		c-0.5,0.5,0.2,1.1-0.2,2.2c-0.3,1.1-0.2,1.2,0.1,1.6c0.3,0.4,0.7,0.3,0.5,1.3s-0.2,1.1,0.3,1.6s1,0.8,0.6,1.2
		c-0.4,0.3-0.6,0.5-0.3,1.2s0.4,1.3,0.5,2c0.2,0.9,0.3,2-0.4,2.5c-0.7,0.5-0.4,1.8,0.6,2.5s0.6,1.6,1.2,2.6
		C199.3,754.6,199.8,755.4,200.5,756.3z"/>
	<path class="st4" d="M201,763c0.4,1-0.4,1.5-1.4,1.6c-1,0.1-4.1,0.6-4.1,0.6s-0.9,0.2-1.9,0.3s0.6,1.8,0.6,3.3s1.5,4.1,0.6,6.1
		c-0.9,2-1.5,2.6-1.1,5.3s0.8,7.3,0.2,9c-0.6,1.7-0.7,3.6-1.3,4.7s-0.5,1.9,0,1.8c0.5-0.2,0.9-1.6,1.3-2.7c0.3-1.1,1.1-1.3,1-0.8
		c-0.1,0.6-0.8,3.5-1.8,4.3c-0.8,0.6-1.3,1.3-1.8,2c-0.6,0.8-0.8,2-1.7,2.8c-0.9,0.8-0.8,2.6-1.6,3.3c-0.8,0.8-1,1.4-0.8,1.8h-0.5
		c-0.7-0.1-0.6-0.9-0.6-0.9c-0.3,0-0.8-0.1-1.1-0.3c-0.7-0.3-0.5-1.3-0.1-1.8c0.3-0.4,0.8-0.8,1.3-1c-1,0.1-1.1-0.3-1.3-1
		c-0.1-0.8,0.3-1.4,1-1.7c0.8-0.2,1.8-0.3,2.6-0.2c0.2-0.3,0.8-0.8,0.8-0.8c-0.4-0.1-0.7-0.6-1.3-0.7c-0.4-0.1-1.2-0.1-1-1.5
		c0.1-0.6,1.6-1.3,2.6-1.3c0.8,0.1,0.5-0.3,0.2-0.8c-0.2-0.8-0.3-1.6-0.3-2.4c-0.1-0.8,0.2-0.8-0.4-1c-0.6-0.3-0.7-1.3-1.5-1.4
		c-0.8-0.2-0.7,0.3-0.7,1.4c0,1.2-0.1,2.3-0.3,3.4c-0.1,0.4-0.2,1.3-0.3,2c-0.1,0.4-0.2,0.8-0.3,1.2c-0.3,0.8-2.2,0.6-2.9-0.9
		c-0.8-1.5,0-4.9,0.5-6.4c0.5-1.6,0.2-4.3,0.5-6.2c0.3-1.9,2.4-5.4,3.2-6.1c0.8-0.8,0.6-3.3,0.7-5.4c0-2-0.2-4.1-0.5-6.1l-2.8,0.3
		c-1.1,0.2-1.6-0.7-1.5-1.8c0.1-1.1-0.4-0.8-1.2-1c-0.8-0.2-0.5-1.7-0.5-1.7c-2.2-0.4-2.2-2.9-1.9-4c0.3-1.1-0.9-1.5-0.5-2.2
		s-0.3-1.2-0.4-2c-0.2-0.8,0.6-2.7,1-3.6c0.4-0.9-0.4-2.9-0.2-4c0.3-1.1,0.8-0.9-0.2-1.2c-1-0.3-0.8-1.2-0.9-1.8s-1.1-0.9-1.9-1.3
		c-0.4-0.3-0.7-0.8-0.7-1.3c0-0.4,0.1-0.9,0.3-1.3c0.4-0.6,0.4-1.4,0.1-2.1c-0.3-0.9-2.6-2.7-2.6-2.7c-0.7,1.6-0.1,4-0.1,6
		c0,0.1,0,0.2,0,0.3c-0.1,2.1,0.6,3.8-0.1,4.9c-0.7,1-0.8,0.8,0.5,2.1c1.1,1.3,1.5,3,1.2,4.7c-0.3,1.3-1,0.8-1,0.8
		c0.3,1.4,0.3,3,0.1,4.4c2.1,0.6,7.9,16.6,6.7,19s-0.5,2.1-0.2,4.9c0.2,2.3,0.2,4.7-0.2,6.9c-0.1,1.4,0,4.8,0,4.8
		c0.7,0.9,1.3,2,1.8,3.1c2.3,5.3-0.3,9-0.7,9.2c-0.4,0.3-1.9,1.2-2.3,1.1s-0.9,0.8-0.9,0.8s-3.5,1.2-4.9,1.8
		c-1.3,0.6,0.3,2.2-0.6,3.7c-0.5,0.8-0.8,2.8-1.1,4.5c-0.1,1.1-0.5,2.2-1.1,3.1c-1.2,1.3-2.3,2.4-0.9,4.4c1.3,1.9,3,3.8,3.1,5.7
		c-0.1,2.1-0.8,4.1-2,5.8c-0.8,0.8-0.1,1.7,0.3,2.8c0.3,1.2-1.7,3.4-0.8,5.6c0.8,2.2,1.1,3.9,0.5,4.9c-0.6,0.9,0.3,0.5,1.2,0.3
		c0.8-0.2,0.3,0.6,0.8,0.8s1.8,12.2,0.4,15c-1.3,2.8-1.2,2.3-0.7,2.7c0.3,0.2,0.5,0.3,0.5,0.4c0,0.2-0.1,0.1-0.3,0.2
		c-0.4,0.3-0.6,0.7-0.1,1.9c0.8,1.7,1.1,3.6,0.9,5.4c-0.3,2.1-1.8,3.4-1.6,7.1c0.3,3.7-0.3,4.7,0.6,5.2c0.5,0.3,0.8,0.8,1.1,1.3
		c0.2,0.5,0.1,1-0.3,1.4c-0.8,0.9-3.6,1.8-3.3,3.4c0.3,1.7-0.8,3.3,0.3,2.3c1.1-1.1,2.2-2.6,2.3-1.8c0.2,0.8-0.3,2.3-1.6,3.7
		s-1.8,2.5-1.4,3.8c0.4,1.3,2.4-0.6,2.8-0.2c0.4,0.4,0.8,1.5-0.8,2.1c-1.6,0.6,0.2,1.3-0.3,2.2c-0.4,0.9,1.7,1,1.3,2
		s-2.6,3.4-1.3,3.9c1.3,0.5,2-0.3,2.9-1.1c-0.3,0.3-0.3,0.3-0.3,0.8c0,0.3,0,0.6,0,1l0,0c0,0.5-1.5,0.8-1.6,1.8
		c-0.1,1,1.8,0.3,0.8,0.9c-1.1,0.7,0.4,1.7,0.3,2.8c-0.1,1.2-1.3,1.1-1.3,1.8c0.1,0.8,0.8,0.3,1,0.8c0.3,0.6-0.3,2.3,0.6,3.3
		c0.8,1.1,1.8,2.8,0,3.3c-1.8,0.6-1.3,3.4-1.6,5.5s1.4,4.5,3.8-1.3c0.5,0.1,0.9,0.3,1.3,0.5c-0.7,1.2-1.8,2.8-1,5.1
		c0.3,0.6,0.4,1.2,0.6,1.8c0.1,0.6-0.3,0.6-1,0.7c-1.3,0.2-1.2,2.2,0.1,3.3c-1.3,0.2-2.5,0.2-3.7,0c-1.1-0.3-2.3-0.3-3.3,0.2
		c-0.9,0.4-2.6,0.4-4.8,0.5c-2.2,0.1-7.9,0.3-9.5,0c-1.7-0.3-1.8-4.2-2.1-5.7c-0.1-1.2-0.4-2.4-1-3.5c-0.6-1.2,0.4-1.7,0.3-2.8
		c-0.1-1.1-0.2-4.5,0.1-5.6s0.1-4.4,0.7-4.9c0.4-0.4,0.7-0.9,0.6-1.5c-0.1-0.3-0.9,0-1.1-0.8s-0.2-2.9-0.3-3.7
		c-0.2-0.8,0.7-0.4,0.6-1.3c-0.1-0.8,0.3-2-0.3-1.8c-0.6,0.3-1.5,0.3-1.8-0.6c-0.1-0.7-0.3-1.3-0.8-1.8c-0.5-0.5-1.3-2.5-0.4-2.5
		s0.2-1.5,0.8-1.6c0.5-0.1,0.8-0.5,0.8-0.9c0-0.2-0.1-0.3-0.2-0.5c-0.5-0.7-0.3-1.1,0.2-1.8s0.2-3.3,1.8-3.3
		c1.7-0.1,1.6-0.4,1.3-1.8c-0.3-1.3-1.5-3.6-0.9-5.2c0.6-1.6,1.3-2.3,1.3-4s1.1-2.1,0.4-3.3c-1-1.8-1.5-3.9-1.5-6
		c0.2-2.2,0.9-3.9,0.8-5.4c0.1-1.2,0.3-2.4,0.8-3.5c0.3-1,0.5-0.8,0.1-0.9c-0.4-0.1-1.3-0.5-1.3-1.1c0.1-0.6,0.1-1-0.3-1
		s-0.8-0.5-0.3-1.1c0.4-0.6,0.3-0.8,0.3-1.4c0-0.6,0.3-1.2-0.1-1.8c-0.4-0.7,0-0.7,0.2-1.4c0.2-0.8-0.3-1.4-0.2-2.2
		c0.2-0.8,0.5-1.8,0.3-2.4c-0.3-0.7-0.4-1.3-0.3-2.1c0.1-0.6,0.5-2.1-0.2-2.8c-0.7-0.7,0.3-1.3-0.2-1.9c-0.5-0.7-1.8-1.7-2.3-6.5
		c-0.6-4.9-0.2-11.1-0.7-17c-0.5-5.9,0.2-3.9-0.5-5s0.2-1.5-0.7-2.5c-0.8-1-1.2-3.4-1.7-2.6c-0.5,0.8-0.2-0.8-0.3-1.4
		c-0.2-0.8-0.5-1.4-1-2.1c-0.7-0.8-1.7,1.6-2.8,2.8c-1.2,1.3-1.2,2.5-2.2,3.1c-1,0.6-0.5,1.5-0.8,2.5s-1.3,2-0.9,2.7
		c0.4,0.7,0.1,2.3-0.2,6.3c-0.3,2.5-0.8,5-1.4,7.4c-1.5-1.3-2.5,1.8-2.3,3.9c0.2,2.2-0.7,1.6-1.1,4.4c-0.4,2.8-1.3,3.8-0.9,5.1
		c0.3,1.3,0.1,1.3-0.8,1.1c-0.8-0.2-0.8,0.3,0.3,2.3c1.1,1.9-1.1,1.4-0.1,2.8c1,1.3,0,1.3,0.5,2.3c0.5,1.1-0.7,1.1-0.1,1.5
		c0.6,0.4,0.3,1,0,2c-0.3,1-0.2,2.3,0.5,2.7c0.7,0.4,0.3,0.6-0.8,1.1c-1,0.5-1.5,1-0.3,1.3c1,0.2,0.9,0.8,1.2,0.8
		c-0.4,0.1-0.7,0.2,0.1,1.4l0,0c0,0-0.1,0.2-1.7-0.3c-1.8-0.4-2.3,0.2-1.5,0.6c0.8,0.4,0.8,1.4,2.3,5.2s1.3,6.2,0.9,9.4
		c-0.4,3.2,1.3,4.8,0.9,7.1c-0.4,2.3,2.2,2.8,1.3,5.2c-0.8,2.4-0.2,1.8,0.3,3.8c0.4,2-0.1,2.9,0,4.2c0.1,1.3-3.2-0.1-2.6,1
		c0.6,1.1,2,1.6,3.3,1.8c1.3,0.2-0.4,2.3-1.4,2.2s-3.2-1.3-2.4,0s1.3,1,2.9,1.3c1.6,0.3,1.7,0.5,0.5,1.3c-1.2,0.8-2.3,1-2.5,2.1
		c-0.3,1.1-2.8,2.3-1.2,2.1c1.7-0.2,1.4,1.4,1.3,2.3s-2.1,0.3-2.5,1.3c-0.4,0.9-0.1,1.3,1.1,0.7s-0.3,1.8,1,1.9
		c-0.5,0.3-0.7,0.4-0.1,1.4c0.4,0.6,0.8,1.3,1,1.9c0.2,0.7,1.1,0.8,0.9,1.9s0.8,0.9,0.8,2.8c0,2.3-0.4,4.6-1.2,6.8
		c-0.8,2.1-0.8,1.9-0.6,2.7c0.3,0.8,0.3,0.8,0.3,1.5c-0.1,0.8,0,0.8-1.8,0.8c-2.9,0.1-5.8,0-8.7-0.2c-2.3-0.3-6.6-1.3-11.8-0.8
		c-4,0.3-8.1,0.4-12.1,0.3c-3.1,0-9,0.2-11.2-0.9s-3.6-2.7-3.3-6.7c0.3-4,0.8-5.4,2.8-6.1c2.1-0.8,10-0.7,12-1.2s2.6-0.3,2.2-1.8
		c-0.4-1.5,0.3-1.2,1.3-2.2c1-1,2.9-2.3,4.4-4.4c1.4-2,1.4-2.6,2.3-2.3c0.8,0.3,0-0.8,0.4-1.5s1-2.4,1.9-3.1
		c0.9-0.7,0.5-1.2-0.9-2.1c-1.4-0.9-2.2-2.7-1.6-4s1-2.9,0.2-3.9c-0.8-1-1.2-3.4-0.6-4.1c0.6-0.7,1.2-2.4,2.2-2.6s0.9-1.7,1.2-2.6
		c0.3-0.9,0.1-1.3-1.1-2.3s-0.5-1.3-0.3-2.8c0.3-2.5,0.4-4.9,0.5-7.4c0-3.7,0.8-4.7,1.2-6.4s0.6-4,1.2-4.7c0.6-0.7,0.5-1-0.3-1
		s-1.1-2.6-1.3-3.7c-0.3-1.4-1.8-6.3-1.4-10.2c4.6-2.6,7.4-6.8,9.1-11.4c4.1-11.4,1.2-25.8,0.6-27.3c0.2-0.3,0.2-0.6,0.1-0.8
		c-0.5-0.8-0.8-1.7-1.2-2.6c-0.2-0.7-0.5-1.9,0-2.5c0.5-0.6,1-1.5-0.2-1.9c-1.2-0.4-1.2-0.5-1-1.3c0.4-1,0.2-2.2-0.7-3
		c0.1-0.8,0.2-1.4,0.2-2.2c-0.1-0.8,0.3-2.6-4.2-5c0-1.3,0.2-2.8,0.5-4c0.1-0.8,2.1-0.8,2-1.3c0-0.6,0.1-1.3,0.2-1.8
		c-0.8,0.5-1.5,0.9-2.3,1.1c-1.4,0.4-6.1,2.4-9.1-1.7s-1.1-8.5-0.7-8.9c0.4-0.4,0.4-1.3,0.8-2.5s2.7-2.2,3.3-2.3s0.2-1,1.1-2.9
		c0.9-1.9,4-3.6,4-3.6c-1.3-0.4-1.7-1.7-2.1-2.3c-0.4-0.6-1.3-0.3-2-0.8c-0.7-0.4-1.3-0.8-0.8-0.1c0.6,0.8,0.2,1.9,0.3,2.8
		s-0.6,1.4-1.2,1.7s-0.1,1.3-1,1.9c-0.9,0.6-2,0.8-3.1,0.7c-0.5-0.1-0.8-0.2-0.8,0.3c0,0.4-0.1,0.9,0.2,0.9c0.3,0-0.2,0.3,0,0.8
		c0.2,0.6-0.3,0.9-1.3,0.9s-4-0.5-4-0.5c-0.3,2-0.4,4.1-0.5,6.1c0.1,2.2-0.1,4.8,0.7,5.4s2.8,4.2,3.1,6.1c0.1,0.8,0.2,1.7,0.2,2.5
		c-2.3-0.6-4.5-0.9-6.9-0.9c-1.8,0-3.6,0.1-5.4,0.4c0-1.6-0.1-3.3-0.1-4.6c-0.1-2.9-0.3-5-0.1-7c0.2-2,0.6-5.4,0.7-6.5
		c0.1-1.2,0.2-2.8,0.2-2.8c-1.5-0.3-3.2-0.6-3.8-0.8c-0.7-0.3-0.3-0.6,0-1.2c0.3-0.6,0-0.2,0.1-1c0.1-0.8,1.2-0.8,0.4-1
		s-0.3-0.7-0.8-1.8c-0.5-1.2,1.2-3.1,2.6-4.6c1.4-1.5,1.2-2.6,1.2-3.7s0.3-2.3,0.1-2.8c-0.3-0.6,0.3-1.4,0.3-3.8
		c0-1.5,0.3-3,0.9-4.4c0.3-0.8,1.1-2.2,0.3-2.8c-0.8-0.7-0.3-1.6-0.4-2.5c-0.2-0.9,1.3-0.6,1.1-1.7c-0.2-1.1,0.3-2.9,0.5-4.9
		c0.2-1.9,0.6-2.4,0.2-4.3c-0.4-1.8,0.1-1.9,0-2.9c0.1-1.4,0.4-2.8,1.2-3.9c0.7-1.3,1.3-2.6,1.7-3.9c0.5-1.3,0.9-1.8,2.6-4.4
		c1.7-2.5,1.7-3.3,2.6-5c0.9-1.8,1.9-1.8,1.8-2.7c0.1-1.2,0.2-2.3,0.2-3.4c-0.2-1-0.5-1.5,1.1-3.3c1.6-1.8,2-4,2.8-5.1
		c0.8-1.1,0.8-3.3,1.2-4.6c0.3-1.2,1.3-2,2.5-2.1c1.3-0.1,2.3-0.8,3.3-0.8c1,0,1,0,1.1-0.9c0.1-0.9,1.2-0.8,1.1-1.3s0.8-1.4,1.1-2.5
		s0.7-0.3,1-1.6c0.3-1.3,3.3-8.5,6.9-11.5c3.5-3.1,5.4-2.3,5.1-2.8c-0.3-0.4,0.6-0.8-0.1-1.1c-0.7-0.3,0.5-1.2-1.8-1.5
		s-3.5-3.3-4-8.1s1.6-10.3,2.4-12.2s5.5-9.8,14.7-9.4c9.2,0.4,11.8,7.1,13.7,11.1c0.8,1.7,1.3,3.5,1.6,5.4c-2,0.8-4.2-3.2-3.9-0.4
		c0.3,3,1.6,3.8,2.8,6.4c1.3,2.8-2.4,2.3-1.1,5.2s-2.3,4.5,0.9,6.7c2.3,1.5,4.5,3.2,6.5,5c-1.8-0.6-5.2-1.4-6.8-1.9
		c-1.6-0.5-3.2-0.5-3.7-0.3c-0.5,0.3,1,0.3,1.5,1.2c0.5,0.8,2.2,0.4,2.8,1.6c0.8,1.3,2.4,0.6,3.1,1.8c0.7,1.3,3.3,0.8,1.7,2.3
		s1.3,0.8,1.2,1.8c-0.2,1,0.5,2.3,0.9,3.1c0.4,0.8,0.7,0.8,1.3-0.6c0.6-1.3,0.8-2.7,0.8-4c0,0.3,0,0.5,0.3,0.6
		c0.7,0.2,0.9,1,1.8,1.1c0.7,0,2.8-0.1,4.5-0.1c-0.8,0,0.3,1.1,0,1.4s-0.4,1.6,1.5,1c1.9-0.6,2.1,0.8,2.8,1.8c0.8,1,2.7,3.4,2.4,5.1
		c-0.3,1.7,0.7,4.8-0.3,6.4c-0.9,1.6-1.3,2.2-1.1,3.5s-0.8,2.1,0.2,3.4c0.9,1.3,1.1-0.4,1-2.3c-0.1-1.9,0.2-2.1,0.8-2.9
		c0.6-0.9,0.9-2.1,0.9-3.2c0.1-0.8,0.9-2.3,1.8-0.6c0.9,1.8,1.4,1.4,0.8,3.3c-0.7,1.8,1.8,2.3,2.5,3.7c0,0.1,0.1,0.2,0.1,0.3
		c0.7,2.5,1.6,4.9,2.8,7.3c2,3.5,2.5,2.4,2.3,4.9c-0.2,2.4,0,3.7,1.7,4.1s-0.7,1.3-0.8,2.3c-0.1,1,2.2,0.1,2.7,2.8
		c0.3,1.3,0.4,1.9,0.4,2.3s-0.2,0.4-0.5,0.8c-0.8,0.8-2.1,1.9-1.5,2.4s2.5-0.4,2.5,0.4c0,0.1,0,0.2-0.1,0.3
		c-0.4,1.3-1.3,1.9-0.9,2.7c0.3,0.8,1.8-0.3,0.6,1.8c-1.2,2,0.9,1.6,1,2.5s0.6,1.3,0.3,2.2c-0.3,1.2-0.3,2.4-0.1,3.6
		c0.3,0.9,0,2-0.8,2.7c-1,0.9-2.3,0.6-2.3,1.8s1.8,0.5,2.5,1.8c0.8,1.3,2.1-0.3,2.6,1.7c0.5,2-3.3-0.5-3.4,1.3s-0.3,3.8,1.8,3.2
		c2-0.6,1.5,0.8,1.2,1.8c-0.3,0.9-0.2,0.8,1.1,0.6c1.3-0.3,1.5-0.1,2.5-0.3c0.2,0.4,0.3,0.9,0.1,1.3C200.1,762.2,200.6,762,201,763z
		"/>
	<path class="st3" d="M196.3,774.5c0.1,1.9,0,4.1-0.1,7s-0.1,7.1-0.2,9.2c-0.1,2.1-0.6,2.8-0.8,4.2s-0.7,1.5-1.3,3.1
		c-0.7,1.5-1.6,2.9-2.6,4.2c-0.4,0.5-1.2,2.1-1.8,2.2c-0.6,0.1-0.7,1.1-1.3,1.6c-0.3,0.3-0.8,0.5-1.3,0.4c-0.2-0.4,0.1-1.2,0.8-1.8
		c0.8-0.7,0.7-2.5,1.6-3.3c0.9-0.8,1.2-1.9,1.7-2.8c0.5-0.8,1.1-1.4,1.8-2c1-0.7,1.7-3.7,1.8-4.3c0.1-0.6-0.6-0.3-1,0.8
		s-0.8,2.4-1.3,2.7c-0.5,0.3-0.6-0.7,0-1.8c0.6-1.1,0.7-3,1.3-4.7s0.3-6.3-0.2-9c-0.5-2.7,0.2-3.3,1.1-5.3c0.9-2-0.6-4.5-0.6-6.1
		c0-1.6-1.7-3.1-0.6-3.3c1.1-0.3,1.9-0.3,1.9-0.3s0.1,1.5,0.2,2.8C195.7,769.1,196.2,772.6,196.3,774.5z"/>
	<path class="st3" d="M196,731.7c0.1,0.3,0.1,0.6,0.1,0.8l-1.6,0.1c0-0.8-1.9,0.1-2.5-0.4s0.8-1.6,1.5-2.4c0.4-0.4,0.5-0.5,0.5-0.8
		h1.3c0,0.4,0,0.8-0.1,1.3C195.1,731.4,195.7,731,196,731.7z"/>
	<path class="st3" d="M194.9,722.6c0.8,0.9,0.7,1.3,0.5,2.5c-0.2,0.9-0.1,2.6-0.1,3.9h-1.3c0-0.3-0.2-0.8-0.4-2.3
		c-0.5-2.8-2.7-1.8-2.7-2.8s2.4-1.9,0.8-2.3c-1.7-0.4-1.9-1.6-1.7-4.1c0.3-2.5-0.3-1.3-2.3-4.9c-1.3-2.3-2.2-4.8-2.8-7.3
		c0-0.1-0.1-0.2-0.1-0.3l0.9-0.3c0.3,0.6,0.6,1.2,0.9,1.8c0.8,1.3,2.8,4.6,3.7,5.5c0.8,0.9-0.2,1.3,0.8,2.3c0.9,1,2.5,4.7,3,5.4
		C194.6,720.5,194.1,721.7,194.9,722.6z"/>
	<path class="st3" d="M185.7,704.9l-0.9,0.3c-0.8-1.3-3.1-1.9-2.5-3.7c0.6-1.8,0.2-1.5-0.8-3.3s-1.8-0.3-1.8,0.6
		c-0.1,1.1-0.3,2.3-0.9,3.2c-0.7,0.8-0.8,1-0.8,2.9s-0.1,3.6-1,2.3c-0.9-1.3,0-2.1-0.2-3.4c-0.2-1.3,0.3-2,1.1-3.5
		c0.8-1.5-0.1-4.7,0.3-6.4c0.3-1.7-1.7-4.1-2.4-5.1c-0.8-1-0.9-2.5-2.8-1.8c-1.9,0.7-1.8-0.7-1.5-1c0.3-0.3-0.8-1.3,0-1.4l0,0
		c0.7,0,1.3,0,1.8,0.1c1.8,0.2,1.7,0.8,2.2,1.4c0.8,0.9,1.3,2,1.8,3.2c1,2.3,1.5,2.5,3.2,3.9c1.7,1.4,3.2,4.9,3.7,6.1
		c0.5,1.2-0.7,2.3,0.2,3C184.7,703,185.3,703.9,185.7,704.9z"/>
	<path class="st3" d="M179.5,940.4c0.2,1.4-0.1,3.1-1.2,3.7c-0.7,0.3-1.4,0.5-2.2,0.6c-1.3-1.2-1.4-3.2-0.1-3.3
		c0.8-0.1,1.1-0.2,1-0.7L179.5,940.4z"/>
	<path class="st3" d="M179.4,940.3L179.4,940.3l-2.4,0.3c-0.2-0.6-0.3-1.3-0.6-1.8c-0.8-2.3,0.3-3.9,1-5.1c1.5,1.1,1.7,3.2,1.7,3.8
		C179.1,938.5,179.3,939.4,179.4,940.3z"/>
	<path class="st3" d="M178.2,808.1c-0.1,2.9-2.8,5.3-2.8,5.3c-0.3,1.7-0.9,3.2-1.8,4.6c-0.1,0.1-0.1,0.2-0.1,0.3l-1.8-0.2
		c0.3-1.8,0.6-3.7,1.1-4.5c0.9-1.6-0.8-3.2,0.6-3.7C174.7,809.3,178.2,808.1,178.2,808.1z"/>
	<path class="st3" d="M176.3,885.1c0.2,1.8-0.8,2.9-1.5,3.8c-0.3,0.3-0.5,0.9-0.3,1.3l-0.9,0.2c-0.2-0.5-0.6-1-1.1-1.3
		c-0.9-0.5-0.4-1.5-0.6-5.2s1.3-5,1.6-7.1c0.2-1.8-0.2-3.8-0.9-5.4c-0.5-1.3-0.3-1.6,0.1-1.9c0.1-0.1,0.2-0.2,0.3-0.2h0.8
		c-0.2,0.4-0.3,0.8,0.1,1.8c0.8,1.7,2.3,5.1,2.3,6.9C176,880.3,176,882.7,176.3,885.1z"/>
	<path class="st3" d="M176.1,892.5c0.3,0.8-1.2,1.9-1.8,2.3c-0.7,0.4-0.1,1.3-0.1,2s0.8,0.8,0.7,1.8s-0.6,0.8-0.8,1.8
		s0.9,0.3,0.5,1.3s-0.3,0.5,0.8,1.6c1,1.1,0.5,2.8,0.1,3.8c-0.4,1-0.9,1-0.3,1.5c0.8,0.8,0.8,2.1-0.1,2.9c0,0,0,0-0.1,0
		c-0.3,0.3-0.6,0.5-0.8,0.6c-0.9,0.8-1.7,1.6-2.9,1.1c-1.3-0.5,0.8-2.8,1.3-3.9c0.4-1.1-1.7-1.1-1.3-2c0.4-0.9-1.4-1.6,0.3-2.2
		c1.7-0.6,1.1-1.7,0.8-2.1c-0.3-0.4-2.3,1.5-2.8,0.2s0.2-2.3,1.4-3.8s1.7-2.9,1.6-3.7c-0.1-0.8-1.3,0.7-2.3,1.8
		c-1.1,1.1-0.1-0.7-0.3-2.3s2.6-2.4,3.3-3.4c0.3-0.4,0.4-0.9,0.3-1.4l0.9-0.2c0.1,0.3,0.2,0.4,0.2,0.7
		C174.8,891.7,175.8,891.6,176.1,892.5z"/>
	<path class="st3" d="M176,928c0,1.3,0,5.1,0,5.1c-2.3,5.9-3.9,3.5-3.8,1.3c0.2-2.2-0.3-5,1.6-5.5c1.8-0.5,0.8-2.2,0-3.3
		c-0.8-1.2-0.3-2.7-0.6-3.3s-0.9-0.1-1-0.8c-0.1-0.8,1.3-0.7,1.3-1.8c0-1.2-1.3-2.2-0.3-2.8s-0.8,0.1-0.8-0.9c0.1-1,1.6-1.3,1.6-1.8
		c0.1,0.6,0.1,1.3,0.1,1.8c-0.1,0.8,0.8,0.4,0.8,1.3s0.5,2.3,0.8,3.2c0.3,0.8,0.2,0.8-0.8,0.9c-0.6,0-1,0.4-1,1
		c0,0.2,0.1,0.3,0.2,0.5c0.6,0.9,0.9,2,1,3.1C175.3,927,176,926.8,176,928z"/>
	<path class="st3" d="M175.8,836.8c0,4-0.7,7.4-0.9,10c-0.3,2.7-2.3,3.3-1.6,3.8s0.8,2.3,1.3,4.8c0.4,2.5,0.3,4,0.3,7.2
		c0,1.9-0.2,3.8-0.6,5.8c-0.1,0.4-0.3,0.8-0.5,1.1h-0.8c0.1-0.2-0.1-0.3-0.5-0.4c-0.5-0.3-0.8,0.2,0.7-2.7c1.4-2.8,0.1-14.8-0.4-15
		c-0.5-0.2,0-0.8-0.8-0.8c-0.8,0.1-1.7,0.6-1.2-0.3s0.4-2.7-0.5-4.9c-0.9-2.2,1.2-4.4,0.8-5.6c-0.3-1.2-1.1-2-0.3-2.8
		c1.3-1.7,1.9-3.7,2-5.8c-0.1-1.8-1.7-3.8-3.1-5.7c-1.4-1.9-0.3-3.2,0.9-4.4c0.6-0.9,0.9-2,1.1-3.1l1.8,0.2c-0.3,1.1,1,3.7,0.7,3.8
		C173.9,822.1,175.8,832.8,175.8,836.8z"/>
	<path class="st3" d="M164.7,683L164.7,683c0,1.4-0.3,2.8-0.8,4c-0.7,1.4-0.9,1.5-1.3,0.6c-0.4-0.9-1.1-2.2-0.9-3.1
		c0.2-0.9-2.8-0.3-1.2-1.8c1.6-1.5-0.9-1-1.7-2.3c-0.8-1.3-2.4-0.7-3.1-1.8c-0.7-1.2-2.4-0.8-2.8-1.6c-0.4-0.8-2-0.8-1.5-1.2
		c0.5-0.3,2.1-0.3,3.7,0.3s4.9,1.3,6.8,1.9c1.2,1.1,1.9,1.9,2.5,2.4C164.9,681.2,164.7,682.3,164.7,683z"/>
	<path class="st3" d="M156.9,661.1c0.1,2.1,0,3.4-0.4,3.8c-0.4,0.3-0.5,1.1-0.3,2.2c0.1,1.3-0.2,2.5-0.5,3.8
		c-0.3,0.7-0.3,1.4-0.4,2.2c-3.1-2.2,0.4-3.8-0.9-6.7c-1.3-2.9,2.4-2.4,1.1-5.2c-1.3-2.5-2.5-3.4-2.8-6.4c-0.3-2.8,1.9,1.2,3.9,0.4
		C156.7,657.1,156.9,659.1,156.9,661.1z"/>
	<path class="st3" d="M138.3,908.2c0.3,1,0.8,1.1,0.2,2.1c-0.5,0.8-0.6,1.7-0.3,2.5c0.3,1.4-0.3,2.8-1.6,3.5
		c-1.5,0.9-1.8,0.4-1.8,1.8s0.4,2.5,0,3.5c-0.4,1-0.2,2.9-0.9,3.2l-0.3,0.1l0,0c-1.3-0.1,0.2-2.5-1-1.9c-1.2,0.6-1.4,0.2-1.1-0.7
		s2.4-0.3,2.5-1.3c0.1-1,0.3-2.6-1.3-2.3c-1.7,0.3,0.9-0.9,1.2-2.1s1.3-1.3,2.5-2.1s1.1-1.2-0.5-1.3s-2.2,0.1-2.9-1.3
		c-0.8-1.3,1.3-0.2,2.4,0c1.1,0.2,2.7-2,1.4-2.2s-2.7-0.7-3.3-1.8s2.7,0.2,2.6-1c-0.1-1.2,0.4-2.1,0-4.2s-1.2-1.3-0.3-3.8
		c0.9-2.4-1.8-2.8-1.3-5.2c0.4-2.3-1.3-3.9-0.9-7.1c0.4-3.2,0.6-5.6-0.9-9.4s-1.6-4.7-2.3-5.2c-0.8-0.5-0.3-1,1.5-0.6
		c1.6,0.3,1.7,0.3,1.7,0.3c0.9,1.6,1.3,8,1.8,13.2c0.4,5.2,0,4.4,1,5.9c1,1.5,0.1,1.6,0.9,3.2c0.8,1.8,0.9,3.8,0.5,5.8
		c-0.3,1.9-0.6,2.8,0.1,3.4c0.7,0.9,0.8,2.1,0.5,3.1C138.1,906.9,138.1,907.6,138.3,908.2z"/>
	<path class="st3" d="M135,843.1c-0.1-2.2,0.8-5.3,2.3-3.9c-0.5,1.9-0.8,3.8-0.8,5.9c0,4.3-1.3,6.5-2,7.3c-0.7,0.8-1.1,0.8-0.8,1.6
		c0.3,0.8,0.4,1.5,0.2,2s0.3,1.3,0.1,2.1s-0.6,1-0.3,1.4c0.3,0.4,0.5,0.8,0.3,1.4s0.3,0.8,0.1,1.1s0.4,0.8,0.1,1.4
		c-0.3,0.6-0.2,1.7,0.1,3.1c0.3,1.4,0.4,2.3-0.2,2.3c-0.6,0.1,0.3,1.3-0.3,1.5c-0.1,0-0.2,0.1-0.3,0.1h-0.1c-0.3,0-0.2-0.6-1.2-0.8
		c-1.2-0.3-0.7-0.8,0.3-1.3s1.5-0.6,0.8-1.1c-0.8-0.5-0.8-1.7-0.5-2.7s0.5-1.6,0-2c-0.5-0.4,0.7-0.4,0.1-1.5c-0.6-1.1,0.5-1-0.5-2.3
		c-1-1.3,1.2-0.8,0.1-2.8c-1.1-1.9-1.1-2.4-0.3-2.3c0.8,0.2,1.1,0.2,0.8-1.1s0.6-2.3,0.9-5.1S135.2,845.3,135,843.1z"/>
	<path class="st5" d="M117,811.4L117,811.4l-0.2-0.2l0,0c-0.8-0.8-1-2.8-1.7-2.2c-0.7,0.6,0.3,2.8-1.8,2.3c-2.3-0.3-4.6-0.5-6.9-0.6
		c-1.5,0-1.2,0.1-0.6,1.2c0.8,1.8,1.3,3.6,1.5,5.5c0.1,1.1,0,1.3,1.1,1.3c1.1-0.1,6.1-0.6,7.4,0.4c1.3,1-0.6,0.6,0.2,1.8
		s-0.2,1,0.4,2.8s0.3,2.6-1.2,0.8s-4.4-1.2-5.4-0.8c-1.1,0.3-0.8,1.3,0.1,1.3c0.8,0.1,2.3-0.9,3.3-0.2c1,0.8,1.8,0.3,2,1.4
		s0.6,1.1,1.6,1.5c1,0.4,1.6,1.4,0,1c-1.6-0.4-4,0.9-3,1.3c2.5,1,11.7,8.6-0.1,21.3c-1.8,1.9-3.9,2.1-4.4,3.9l0,0
		c-0.5,0.3-1,0.5-1.6,0.8c-18.2,7.9-16.7-15.7-19.7-20.3c-0.5-0.8-1-1.7-1.4-2.6c-1.3-2.7-2.3-5.9-5.1-9c-0.8-0.8-1.6-1.8-2.3-2.8
		c-0.3-0.5-3.7,0.2-4.6,1.4c-2.2,3.1-3.8,6.6-4.9,10.2c-1.1,4.5-3.5,10.4-1,16c-1.3,0.4-2.7,0.8-4.1,1.1c-1.8,0.3-3-0.8-4.3-2.6
		c-0.9-1.3-1.3-2.8-1-4.4c0.3-0.9,0.7-1.8,1.3-2.6c-2.5-6.8-1.4-14.6-1.4-14.6c-4.2-0.8-4.1-3.5-3.8-5.4c0.6-2.3,1.6-4.6,3-6.5
		c0.6-1,1.9-1.3,2.9-0.8c0.1,0.1,0.2,0.1,0.3,0.2c0,0,4.9-7.5,10.5-11c5.4-3.3,11.3-5.5,17.4-6.6c0,1.8,0,3.4,0,4.5
		c0,2,0.6,2.8,0.8,4.2c0.2,1.3,0.7,1.5,1.3,3.1c0.7,1.5,1.6,2.9,2.6,4.2c0.4,0.5,1.2,2.1,1.8,2.3s0.7,1.1,1.3,1.6
		c0.5,0.4,1.1,0.5,1.7,0.3c0.7-0.1,0.6-0.9,0.6-0.9c0.3,0,0.8-0.1,1.1-0.3c0.7-0.3,0.5-1.3,0.1-1.8c-0.3-0.4-0.8-0.8-1.3-1
		c1,0.1,1.1-0.3,1.3-1c0-0.8-0.3-1.4-1-1.7c-0.8-0.2-1.8-0.3-2.6-0.2c-0.2-0.3-0.8-0.8-0.8-0.8c0.4-0.1,0.7-0.6,1.3-0.7
		c0.4-0.1,1.2-0.1,1-1.5l0.7-0.1c0.1,0.4,0.2,0.8,0.3,1.2c0.3,0.8,2.2,0.6,2.9-0.9s0.1-4.9-0.5-6.4c-0.3-1.2-0.4-2.4-0.3-3.7
		c2.2,0.6,4.3,1.4,6.3,2.6c-0.3-0.4,0.8-1,1.3-1.8c0.7-0.8,1.8-1.1,2.7-0.7c0.8,0.3,1.7,0.7,2.4,1.2c4.5,2.4,4.2,4.2,4.2,5
		c0,0.8-0.1,1.4-0.2,2.2c0.8,0.8,1,1.9,0.7,3c-0.2,0.8-0.2,0.9,1,1.3s0.7,1.3,0.2,1.9s-0.1,1.8,0,2.5c0.3,0.9,0.7,1.8,1.2,2.6
		c0.1,0.3,0.1,0.6-0.1,0.8C120.1,815.3,118.7,813.2,117,811.4z"/>
	<path class="st3" d="M119,827.2c1.2,4.2,2.5,11,0.3,17.2c-1.4,4.2-4.4,8.2-10.2,11.1c0.4-1.8,2.6-2,4.4-3.9
		c11.7-12.8,2.5-20.3,0.1-21.3c-1-0.4,1.4-1.8,3-1.3c1.6,0.4,1-0.6,0-1c-1-0.4-1.4-0.4-1.6-1.5c-0.2-1.1-1-0.6-2-1.4
		c-1-0.8-2.4,0.3-3.3,0.2c-0.8-0.1-1.1-1.1-0.1-1.3c1-0.3,3.9-0.8,5.4,0.8c1.5,1.7,1.8,0.8,1.2-0.8c-0.7-1.7,0.3-1.5-0.4-2.8
		c-0.8-1.3,1.2-0.8-0.2-1.8s-6.4-0.6-7.4-0.4s-1-0.2-1.1-1.3c-0.3-1.9-0.8-3.8-1.5-5.5c-0.6-1.1-0.8-1.2,0.6-1.2
		c2.3,0,4.6,0.3,6.9,0.6c2.1,0.4,1.1-1.8,1.8-2.3s0.9,1.4,1.7,2.2c-0.6-0.5-1-0.6-0.9,0.3c0.2,1.6,0.6,3.2,1.3,4.6
		c0.7,1.1,1.4,3.3,0.8,4.4C117.1,821.6,117.6,821.9,119,827.2z"/>
	<path class="st5" d="M102,800.6c0.5,1.6,1.3,4.9,0.5,6.4s-2.6,1.7-2.9,0.9c-0.1-0.3-0.2-0.8-0.3-1.2c-0.1-0.8-0.2-1.6-0.3-2
		c-0.2-1.2-0.3-2.3-0.3-3.4c0-1.1,0.2-1.6-0.7-1.4c-0.8,0.2-0.9,1.2-1.5,1.4c-0.6,0.3-0.3,0.3-0.4,1c0,0.8-0.2,1.7-0.3,2.4
		c-0.3,0.7-0.6,0.9,0.2,0.8c1.1-0.1,2.6,0.7,2.6,1.3c0.2,1.3-0.7,1.4-1,1.5c-0.7,0.1-0.9,0.7-1.3,0.7c0,0,0.8,0.4,0.8,0.8
		c0.8-0.1,1.8,0,2.6,0.2c0.7,0.3,1.1,0.9,1,1.7c-0.1,0.7-0.3,1.1-1.3,1c0.5,0.3,0.9,0.5,1.3,1c0.3,0.6,0.5,1.6-0.1,1.8
		c-0.3,0.2-0.7,0.3-1.1,0.3c0,0,0.1,0.8-0.6,0.9c-0.6,0.2-1.2,0-1.7-0.3c-0.6-0.5-0.7-1.5-1.3-1.6c-0.6-0.1-1.3-1.7-1.8-2.3
		c-1-1.3-1.9-2.7-2.6-4.2c-0.7-1.6-1.1-1.8-1.3-3.1c-0.3-1.3-0.8-2.2-0.8-4.2c0-1.1,0-2.8,0-4.5c1.8-0.3,3.5-0.4,5.4-0.4
		c2.3,0,4.6,0.3,6.9,0.9C101.6,798.2,101.7,799.4,102,800.6z"/>
	<path class="st5" d="M93.9,799.3c0,0,6.3-2.3,6.3-1.8c0,0.4,1.3,11.5,1.3,11.5l-7.5-1.8V799.3z"/>
	<g class="st6">
		<path class="st4" d="M115.2,824.6c-1.5-1.8-4.4-1.2-5.4-0.8s-0.8,1.3,0.1,1.3c0.8,0.1,2.3-0.9,3.3-0.2c1,0.8,1.8,0.3,2,1.4
			s0.6,1.1,1.6,1.5c1,0.4,1.6,1.4,0,1c-1.6-0.4-4,0.9-3,1.3c2.5,1,11.7,8.6-0.1,21.3c-1.8,1.9-3.9,2.1-4.4,3.9l0,0
			c-0.5,0.3-1,0.5-1.6,0.8c-18.2,7.9-16.7-15.7-19.7-20.3c-0.5-0.8-1-1.7-1.4-2.6c-1.3-2.7-2.3-5.9-5.1-9c-0.8-0.8-1.6-1.8-2.3-2.8
			c-0.3-0.5-3.7,0.2-4.6,1.4c-2.2,3.1-3.8,6.6-4.9,10.2c-1.1,4.5-3.5,10.4-1,16c-1.3,0.4-2.7,0.8-4.1,1.1c-1.8,0.3-3-0.8-4.3-2.6
			c-0.9-1.3-1.3-2.8-1-4.4c0.3-0.9,0.7-1.8,1.3-2.6c-2.5-6.8-1.4-14.6-1.4-14.6c-4.2-0.8-4.1-3.5-3.8-5.4c0.6-2.3,1.6-4.6,3-6.5
			c0.6-1,1.9-1.3,2.9-0.8c0.1,0.1,0.2,0.1,0.3,0.2c0,0,4.9-7.5,10.5-11c5.7-3.4,14.1-7.1,22.8-6.9c4.6,0,9.1,1.2,13.1,3.5
			c-0.3-0.4,0.8-1,1.3-1.8c0.7-0.8,1.8-1.1,2.7-0.7c0.8,0.3,1.7,0.7,2.4,1.2c4.5,2.4,4.2,4.2,4.2,5c0,0.8-0.1,1.4-0.2,2.2
			c0.8,0.8,1,1.9,0.7,3c-0.2,0.8-0.2,0.9,1,1.3c1.2,0.4,0.7,1.3,0.2,1.9s-0.1,1.8,0,2.5c0.3,0.9,0.7,1.8,1.2,2.6
			c0.1,0.3,0.1,0.6-0.1,0.8c-1.2-2.3-2.7-4.4-4.5-6.3l0,0l-0.2-0.2l0,0c-0.8-0.8-1-2.8-1.7-2.2c-0.7,0.6,0.3,2.8-1.8,2.3
			c-2.3-0.3-4.6-0.5-6.9-0.6c-1.5,0-1.2,0.1-0.6,1.2c0.8,1.8,1.3,3.6,1.5,5.5c0.1,1.1,0,1.3,1.1,1.3s6.1-0.6,7.4,0.4
			c1.3,1-0.6,0.6,0.2,1.8s-0.2,1,0.4,2.8S116.7,826.4,115.2,824.6z"/>
		<path class="st7" d="M121.4,817.6c0.7,1.5,3.5,15.9-0.6,27.3l-1.4-0.5c2.2-6.3,0.8-13-0.3-17.2c-1.5-5.4-1.8-5.7-1.1-6.7
			c0.7-1-0.1-3.3-0.8-4.4c-0.8-1.4-1.2-3-1.3-4.6c-0.1-0.8,0.3-0.8,0.9-0.3l0,0c0,0.1,0.1,0.1,0.2,0.2l0,0
			C118.7,813.2,120.2,815.3,121.4,817.6z"/>
		<path class="st7" d="M109.2,855.6c5.8-2.9,8.8-6.9,10.2-11.1l1.4,0.5c-1.7,4.6-4.5,8.8-9.1,11.4c-26.8,15-43.2-6.9-43.2-6.9
			c-2.5-5.6,0-11.5,1-16c4,2.5,10.1,3.6,16.9,0c0.4,0.9,0.8,1.8,1.4,2.6c3.1,4.6,1.6,28.2,19.7,20.3
			C108.2,856.1,108.7,855.8,109.2,855.6L109.2,855.6z"/>
		<path class="st3" d="M81.3,824.5c2.8,3.1,3.8,6.2,5.1,9c-6.8,3.6-12.8,2.5-16.9,0c1-3.7,2.6-7.1,4.9-10.2c1-1.3,4.4-1.9,4.6-1.4
			C79.7,822.7,80.5,823.6,81.3,824.5z"/>
	</g>
</g>
</svg>
